<svg width="160" height="160" viewBox="0 0 160 160" fill="none" xmlns="http://www.w3.org/2000/svg">
<path d="M80 0C124.183 0 160 35.8172 160 80C160 124.183 124.183 160 80 160C35.8172 160 0 124.183 0 80C0 35.8172 35.8172 0 80 0ZM84.2422 36.7578C81.899 34.4147 78.101 34.4147 75.7578 36.7578L37.5732 74.9414C35.2304 77.2846 35.2302 81.0837 37.5732 83.4268C39.9163 85.7698 43.7154 85.7696 46.0586 83.4268L74 55.4854V119C74 122.314 76.6863 125 80 125C83.3137 125 86 122.314 86 119V55.4854L113.941 83.4268C116.285 85.7696 120.084 85.7698 122.427 83.4268C124.77 81.0837 124.77 77.2846 122.427 74.9414L84.2422 36.7578Z" fill="white"/>
</svg>
