<svg width="95" height="59" viewBox="0 0 95 59" fill="none" xmlns="http://www.w3.org/2000/svg">
<path d="M35.9905 35.774H32.9987V21.1045H33.4114C33.5146 21.1045 33.6177 21.1045 33.7209 21.1045C33.8241 21.1045 33.9272 21.1045 34.0304 21.1045C34.2367 21.1045 34.443 21.1045 34.6494 21.2071C34.8557 21.2071 35.062 21.3097 35.2684 21.4122C35.4747 21.5148 35.681 21.72 35.7842 21.9252C35.8873 22.0277 35.9905 22.3355 35.9905 22.6433V35.774Z" fill="white"/>
<path d="M47.7513 31.2604V21.1045H48.0608C48.164 21.1045 48.2671 21.1045 48.3703 21.1045C48.4735 21.1045 48.5766 21.1045 48.6798 21.1045C48.8861 21.1045 49.0925 21.1045 49.2988 21.2071C49.5051 21.2071 49.7114 21.3097 49.9178 21.4123C50.1241 21.5149 50.2272 21.72 50.4336 21.9252C50.5367 22.1304 50.6399 22.4381 50.6399 22.8485V35.9792H48.0608L41.7678 26.1312V35.8766H38.8793V21.1045C38.9824 21.002 39.1887 21.002 39.3951 21.002C39.6014 21.002 39.9109 21.002 40.1172 21.002C40.633 21.002 40.9425 21.1045 41.252 21.2071C41.5615 21.4123 41.7678 21.6175 41.9742 21.9252L47.7513 31.2604Z" fill="white"/>
<path d="M56.9329 23.464H52.2906C52.2906 23.2588 52.2906 23.1562 52.1874 23.0536C52.1874 22.9511 52.1874 22.7459 52.1874 22.6433C52.1874 22.233 52.2906 21.9252 52.6001 21.5149C52.9096 21.2071 53.4254 21.002 54.0444 21.002H64.4639C64.4639 21.3097 64.5671 21.6175 64.5671 21.9252C64.5671 22.3355 64.4639 22.6433 64.1544 22.9511C63.8449 23.2588 63.4323 23.464 62.7101 23.464H59.9247V35.7741H56.8298V23.464H56.9329Z" fill="white"/>
<path d="M74.0575 33.5172C74.7797 33.5172 75.2955 33.7224 75.5018 34.0301C75.8113 34.3379 75.9145 34.7482 75.9145 35.1586C75.9145 35.3637 75.9145 35.4663 75.9145 35.5689C75.9145 35.6715 75.9145 35.7741 75.9145 35.9792H66.3202V21.002H75.605C75.605 21.2071 75.605 21.3097 75.7081 21.4123C75.7081 21.5149 75.7081 21.6175 75.7081 21.8226C75.7081 22.3355 75.605 22.7459 75.2955 22.9511C74.986 23.1562 74.5733 23.3614 73.8512 23.3614H69.5183V26.9518H74.2638V29.3113H69.5183V33.4146H74.0575V33.5172Z" fill="white"/>
<path d="M87.9852 25.3105C87.9852 25.926 87.882 26.439 87.7788 26.9519C87.5725 27.3622 87.3662 27.7725 87.1599 28.1829C86.8504 28.4906 86.5409 28.7984 86.2314 29.1061C85.9219 29.3113 85.5092 29.5165 85.1997 29.6191L88.8105 35.6715C88.501 35.7741 88.1915 35.8767 87.882 35.9793C87.5725 36.0819 87.263 36.0819 86.9535 36.0819C86.4377 36.0819 85.9219 35.9793 85.6124 35.7741C85.1997 35.5689 84.8902 35.1586 84.5808 34.6457L82.1048 30.2346H80.8669V35.7741H77.772V21.1046C78.4941 21.002 79.2162 21.002 79.9384 21.002C80.6605 21.002 81.2795 20.8994 81.7953 20.8994C83.9618 20.8994 85.5092 21.3098 86.5409 22.0278C87.4693 22.7459 87.9852 23.7718 87.9852 25.3105ZM84.7871 25.5157C84.7871 24.5924 84.5808 23.9769 84.0649 23.5666C83.5491 23.2588 82.9301 23.0537 82.1048 23.0537C81.7953 23.0537 81.589 23.0537 81.3827 23.0537C81.1764 23.0537 81.0732 23.0537 80.8669 23.0537V28.1829H81.8985C82.827 28.1829 83.446 27.9777 83.9618 27.5674C84.5808 27.157 84.7871 26.439 84.7871 25.5157Z" fill="white"/>
<path d="M44.0373 56.2627C43.9341 56.3653 43.8309 56.4679 43.6246 56.5704C43.4183 56.673 43.1088 56.8782 42.7993 56.9808C42.4898 57.0834 42.0772 57.186 41.5613 57.2885C41.0455 57.3911 40.5297 57.3911 39.9107 57.3911C38.6728 57.3911 37.6411 57.186 36.8158 56.7756C35.9905 56.3653 35.2684 55.8524 34.6494 55.1343C34.0304 54.4162 33.6177 53.5955 33.4114 52.6723C33.1019 51.749 32.9988 50.7232 32.9988 49.5947C32.9988 48.4663 33.1019 47.4405 33.4114 46.5172C33.7209 45.594 34.1336 44.7733 34.7525 44.0552C35.3715 43.3371 36.0937 42.8242 36.919 42.4138C37.7443 42.0035 38.7759 41.7983 40.0139 41.7983C40.6329 41.7983 41.1487 41.9009 41.5613 42.0035C42.0772 42.1061 42.3866 42.2087 42.7993 42.4138C43.1088 42.5164 43.4183 42.7216 43.6246 42.8242C43.8309 43.0293 44.0373 43.1319 44.1404 43.2345C44.2436 43.3371 44.3468 43.5423 44.4499 43.6449C44.5531 43.85 44.5531 43.9526 44.5531 44.1578C44.5531 44.4655 44.4499 44.7733 44.2436 45.081C44.0373 45.3888 43.7278 45.6965 43.5214 45.9017C43.3151 45.6965 43.1088 45.594 42.9025 45.3888C42.6961 45.1836 42.3866 45.081 42.1803 44.8759C41.8708 44.7733 41.5613 44.5681 41.2518 44.5681C40.9424 44.4655 40.5297 44.4655 40.117 44.4655C39.3949 44.4655 38.7759 44.5681 38.2601 44.8759C37.7443 45.1836 37.3316 45.594 37.0221 46.1069C36.7126 46.6198 36.5063 47.1327 36.4032 47.7482C36.3 48.3637 36.1968 48.9792 36.1968 49.6973C36.1968 50.4154 36.3 51.0309 36.4032 51.6464C36.5063 52.2619 36.8158 52.8774 37.1253 53.2878C37.4348 53.8007 37.8475 54.211 38.3633 54.4162C38.8791 54.7239 39.4981 54.8265 40.3234 54.8265C40.736 54.8265 41.1487 54.7239 41.4582 54.6213C41.7677 54.5188 42.0772 54.4162 42.3866 54.211C42.6961 54.1084 42.9025 53.9033 43.1088 53.6981C43.3151 53.4929 43.5214 53.3903 43.6246 53.2878C43.7278 53.3903 43.8309 53.4929 43.9341 53.6981C44.0373 53.8007 44.1404 54.0058 44.2436 54.211C44.3468 54.4162 44.4499 54.5188 44.5531 54.7239C44.6562 54.9291 44.6562 55.0317 44.6562 55.1343C44.6562 55.3394 44.6562 55.442 44.5531 55.6472C44.3468 55.9549 44.2436 56.1601 44.0373 56.2627Z" fill="white"/>
<path d="M59.3056 49.6973C59.3056 50.7231 59.2024 51.7489 58.8929 52.6722C58.6866 53.5955 58.2739 54.4161 57.655 55.1342C57.1391 55.8523 56.417 56.3652 55.5917 56.7756C54.7664 57.1859 53.7347 57.3911 52.4968 57.3911C51.2588 57.3911 50.2272 57.1859 49.4019 56.7756C48.5766 56.3652 47.8544 55.7497 47.3386 55.0316C46.8228 54.3135 46.4101 53.4929 46.2038 52.5696C45.9975 51.6464 45.7912 50.6205 45.7912 49.5947C45.7912 48.5688 45.8943 47.543 46.2038 46.6197C46.5133 45.6965 46.926 44.8758 47.4418 44.1577C47.9576 43.4396 48.6797 42.9267 49.6082 42.5164C50.4335 42.106 51.4651 41.9009 52.7031 41.9009C53.8379 41.9009 54.8695 42.106 55.6949 42.5164C56.5202 42.9267 57.2423 43.4396 57.7581 44.1577C58.2739 44.8758 58.6866 45.6965 58.8929 46.6197C59.2024 47.6456 59.3056 48.5688 59.3056 49.6973ZM56.2107 49.6973C56.2107 48.9792 56.1075 48.3637 56.0043 47.6456C55.9012 47.0301 55.6949 46.4146 55.3854 46.0042C55.0759 45.4913 54.7664 45.1836 54.2506 44.8758C53.8379 44.5681 53.2189 44.4655 52.6 44.4655C51.8778 44.4655 51.362 44.5681 50.8462 44.8758C50.3304 45.1836 50.0209 45.4913 49.7114 46.0042C49.4019 46.5172 49.1956 47.0301 49.0924 47.6456C48.9892 48.2611 48.8861 48.9792 48.8861 49.6973C48.8861 50.4154 48.9892 51.0309 49.0924 51.7489C49.1956 52.3645 49.4019 52.98 49.7114 53.4929C50.0209 54.0058 50.3304 54.4161 50.8462 54.7239C51.2588 55.0316 51.8778 55.1342 52.4968 55.1342C53.1158 55.1342 53.7347 55.0316 54.1474 54.7239C54.5601 54.4161 54.9727 54.0058 55.2822 53.4929C55.5917 52.98 55.798 52.467 55.9012 51.7489C56.1075 51.1334 56.2107 50.4154 56.2107 49.6973Z" fill="white"/>
<path d="M64.1542 42.2085C64.67 42.2085 64.9795 42.3111 65.289 42.5162C65.5985 42.7214 65.8048 43.0292 65.9079 43.4395L69.3123 51.3385L72.7167 43.5421C72.9231 43.0292 73.2326 42.7214 73.5421 42.5162C73.8515 42.3111 74.161 42.2085 74.5737 42.2085C74.8832 42.2085 75.1927 42.2085 75.5022 42.3111C75.8117 42.3111 76.018 42.4137 76.1211 42.4137L77.1528 57.0832H74.2642L73.5421 47.3377L70.5503 54.0057H67.9712L65.0826 47.5429L64.4637 57.0832H61.5751L62.7099 42.4137C62.813 42.4137 63.1225 42.3111 63.3289 42.3111C63.5352 42.3111 63.8447 42.2085 64.1542 42.2085Z" fill="white"/>
<path d="M82.0015 42.2085C82.5173 42.2085 82.8268 42.3111 83.1363 42.5162C83.4458 42.7214 83.6521 43.0292 83.7553 43.4395L87.1597 51.3385L90.5641 43.5421C90.7704 43.0292 91.0799 42.7214 91.3894 42.5162C91.6989 42.3111 92.0084 42.2085 92.4211 42.2085C92.7305 42.2085 93.04 42.2085 93.3495 42.3111C93.659 42.3111 93.8653 42.4137 93.9685 42.4137L95.0001 57.0832H92.1116L91.3894 47.3377L88.3977 54.0057H85.9217L83.0332 47.5429L82.4142 57.0832H79.5256L80.6604 42.4137C80.7636 42.4137 81.0731 42.3111 81.2794 42.3111C81.3825 42.3111 81.692 42.2085 82.0015 42.2085Z" fill="white"/>
<path d="M26.399 21.1688C19.4213 18.3823 11.2341 19.8684 5.65195 25.4414C-1.88398 32.9648 -1.88398 45.1324 5.65195 52.6558C11.2341 58.2288 19.4213 59.7149 26.399 56.9284V48.0117C25.0035 48.6619 23.5149 49.0334 21.9333 49.0334C16.3511 49.0334 11.8854 44.5751 11.8854 39.0022C11.8854 33.4292 16.3511 28.9709 21.9333 28.9709C23.5149 28.9709 25.0965 29.3424 26.399 29.9926V21.1688Z" fill="white"/>
<path d="M23.2377 12.2329C25.9862 9.47755 25.9862 4.91692 23.2377 2.06653C20.4892 -0.688844 15.9399 -0.688844 13.0967 2.06653C10.2534 4.82191 10.3482 9.38254 13.0967 12.2329C15.9399 14.9883 20.4892 14.9883 23.2377 12.2329Z" fill="white"/>
</svg>
