<svg width="179" height="110" viewBox="0 0 179 110" fill="none" xmlns="http://www.w3.org/2000/svg">
<path fill-rule="evenodd" clip-rule="evenodd" d="M31.866 0.294451C28.2736 1.16409 24.9439 3.84599 23.2863 7.20783C21.7834 10.2545 21.3982 12.9831 22.0431 16.0239C23.0966 20.9995 27.1764 25.2018 32.0703 26.3545C40.4078 28.3185 48.4855 21.9801 48.5205 13.4471C48.538 9.47532 47.4145 6.78467 44.5283 3.881C42.576 1.91993 40.9068 0.936485 38.4583 0.311978C36.8533 -0.0965786 33.5265 -0.10535 31.866 0.294451ZM152.755 40.94C152.198 40.9896 151.211 41.0859 150.563 41.1559L149.384 41.2843V68.2053H155.005V58.0731L156.161 58.1402L157.316 58.2073L159.627 62.1382C160.897 64.3007 162.266 66.4602 162.665 66.9388C163.547 67.9922 164.635 68.4825 166.135 68.5059C167.498 68.5263 169.456 68.0127 169.319 67.6683C169.266 67.5312 167.793 65.0448 166.045 62.1412C163.281 57.5536 162.916 56.8328 163.24 56.6373C166.596 54.615 167.822 52.5371 167.822 48.8718C167.822 44.7687 165.945 42.4896 161.641 41.3573C160.31 41.0071 154.897 40.7503 152.764 40.9341L152.755 40.94ZM64.8628 54.6296V68.2257L67.6176 68.1615L70.3695 68.0973L70.4279 55.9369C70.4921 42.4983 70.4862 42.44 69.1555 41.547C68.5223 41.1209 68.0933 41.0334 66.6254 41.0334H64.8598V54.6296H64.8628ZM76.4366 41.2902C76.3724 41.4565 76.3461 47.5557 76.3782 54.8455L76.4366 68.0973L79.0747 68.1615L81.7128 68.2257L81.7712 59.4418L81.8295 50.6578L87.4793 59.3775L93.129 68.0973L95.5133 68.1615L97.8975 68.2257V55.7852C97.8975 47.3981 97.8187 43.117 97.6523 42.6442C97.2496 41.4886 96.1903 41.0013 94.2584 41.0771L92.6154 41.1443L92.5016 50.2142L92.3907 59.2842L87.1729 50.7657C84.3042 46.0819 81.6895 41.9993 81.3655 41.6958C80.8432 41.2055 80.5426 41.1355 78.6603 41.0655C77.0378 41.0071 76.5154 41.0567 76.4278 41.2902H76.4366ZM103.629 41.2698C103.252 41.3777 102.645 41.7804 102.281 42.1598C101.691 42.7756 101.615 43.009 101.615 44.2434V45.6355L105.829 45.6967L110.043 45.758V68.2111H115.664V45.7493H118.416C121.416 45.7493 122.507 45.545 123.251 44.8534C123.873 44.2727 124.197 43.0849 124.042 41.938L123.92 41.0334L114.114 41.0538C108.721 41.0655 104.002 41.1618 103.626 41.2727L103.629 41.2698ZM127.804 54.6208V68.2111H145.337V66.8804C145.337 65.7919 145.235 65.43 144.776 64.8872C143.956 63.9125 142.807 63.7199 137.816 63.7199H133.421V56.5322H141.963V52.0411H133.421V45.5275H137.924C143.662 45.5275 144.426 45.2707 144.779 43.2308C144.858 42.7697 144.855 42.0869 144.773 41.7133L144.625 41.0334H127.801V54.6237L127.804 54.6208ZM155.151 44.9993C155.069 45.081 155.002 47.1529 155.002 49.6043V54.0605H156.84C160.182 54.0605 161.764 52.7297 161.933 49.7823C161.98 48.9448 161.901 47.903 161.755 47.4652C161.428 46.4759 160.229 45.3991 159.108 45.0897C158.165 44.83 155.384 44.7658 155.148 45.0022L155.151 44.9993ZM31.4049 36.9215C15.7426 39.3145 3.64059 50.9146 0.532645 66.5127C-0.118127 69.7841 -0.18525 76.2247 0.40132 79.3735C1.89255 87.3607 5.25439 93.7897 10.8341 99.311C14.5053 102.944 18.2377 105.439 22.6706 107.228C30.9526 110.564 39.3105 110.888 47.9456 108.206L50.251 107.491V98.9929C50.251 94.3208 50.1985 90.495 50.1343 90.495C50.0701 90.495 49.3989 90.7459 48.6402 91.0553C44.2832 92.8237 38.292 92.7012 33.9993 90.7576C29.8582 88.8812 26.6423 85.8053 24.6229 81.7898C22.3729 77.319 22.011 72.0136 23.6248 67.1255C24.5295 64.3794 25.9886 62.1265 28.4225 59.7102C30.366 57.7783 30.8446 57.4369 33.1705 56.2988C36.8912 54.4807 40.1714 53.8766 43.8542 54.3319C45.5497 54.542 48.2812 55.3007 49.86 56.0011C50.2306 56.1645 50.254 55.686 50.254 47.6257V39.0781L48.1499 38.404C44.289 37.1667 41.9573 36.7931 37.5537 36.6939C34.7551 36.6326 32.8611 36.7027 31.4078 36.9245L31.4049 36.9215ZM74.1574 79.8958C67.5534 81.0865 63.8852 86.6633 64.2616 94.9395C64.4075 98.1204 64.784 99.74 65.8929 101.94C67.3695 104.87 70.104 106.91 73.5183 107.628C78.8237 108.746 85.0951 106.82 85.0951 104.074C85.0951 103.452 84.5202 102.32 83.4871 100.913C83.4054 100.802 82.9472 101.015 82.4745 101.389C80.8577 102.661 79.7255 103.096 77.7586 103.204C75.4882 103.329 74.064 102.903 72.6837 101.689C70.6876 99.9355 69.923 97.382 70.0835 93.0105C70.2061 89.5961 70.6497 88.1662 72.0913 86.532C73.3987 85.0495 74.4843 84.5534 76.6934 84.4308C78.9638 84.3053 80.2945 84.7051 82.1476 86.0709L83.4725 87.0456L83.9219 86.5583C84.6894 85.7236 85.3168 84.5242 85.3168 83.888C85.3168 82.6361 83.2595 81.0223 80.6185 80.2052C79.3052 79.7996 75.6691 79.6274 74.1545 79.8988L74.1574 79.8958ZM97.6815 80.0184C93.2837 80.9697 90.2516 83.9843 88.8742 88.7702C88.1972 91.1224 88.1505 96.1914 88.7808 98.6457C90.3363 104.695 94.4014 107.961 100.378 107.961C106.398 107.961 110.431 104.908 112.106 99.0863C112.547 97.5542 112.62 96.7809 112.62 93.7051C112.62 88.4843 111.768 85.7849 109.27 83.0913C106.62 80.2314 102.158 79.0495 97.6786 80.0184H97.6815ZM119.542 80.2723C119.265 80.3248 119.037 80.4532 119.037 80.5554C119.037 80.9435 117.248 105.212 117.143 106.227L117.035 107.295H122.376L122.504 106.116C122.574 105.469 122.84 101.754 123.091 97.8607C123.342 93.9706 123.569 90.6467 123.596 90.4745C123.622 90.3024 124.81 92.7303 126.234 95.8645L128.825 101.564L131.183 101.628L133.541 101.692L136.074 96.0134C138.984 89.4882 139.033 89.3948 139.039 90.3345C139.039 90.7051 139.296 94.5455 139.605 98.8675C139.915 103.189 140.166 106.855 140.166 107.009C140.166 107.222 140.84 107.292 142.865 107.292H145.564L145.433 105.775C145.36 104.94 144.919 98.9258 144.452 92.4035C143.986 85.8841 143.527 80.4766 143.44 80.3861C143.352 80.2956 142.369 80.2226 141.257 80.2226H139.238L138.412 81.1215C137.778 81.8073 136.847 83.7304 134.455 89.2693C132.733 93.2556 131.259 96.4395 131.174 96.3432C131.09 96.2469 129.683 92.9842 128.046 89.0942C126.406 85.2042 124.921 81.7869 124.74 81.5038C124.127 80.5408 123.105 80.1089 121.512 80.141C120.71 80.1585 119.822 80.2139 119.545 80.2694L119.542 80.2723ZM152.81 80.2723C152.516 80.3278 152.262 80.5758 152.203 80.8589C152.113 81.2966 150.271 106.324 150.277 107.009C150.277 107.219 150.972 107.29 152.977 107.29H155.673L155.682 106.446C155.697 104.905 156.735 90.6555 156.84 90.5504C156.896 90.495 158.09 92.9784 159.493 96.0659L162.044 101.686L164.399 101.622L166.754 101.558L169.354 95.742C171.476 90.9969 171.983 90.0251 172.112 90.4628C172.199 90.7605 172.488 94.4375 172.757 98.6398C173.022 102.839 173.288 106.505 173.343 106.782C173.442 107.269 173.53 107.287 176.028 107.287H178.608V106.668C178.611 105.518 176.766 80.4445 176.673 80.3482C176.62 80.2957 175.748 80.2139 174.729 80.1672C172.71 80.0738 171.823 80.4036 171.093 81.5184C170.901 81.8102 169.374 85.2188 167.699 89.0942C166.024 92.9667 164.594 96.2322 164.521 96.3519C164.448 96.4686 163.091 93.4949 161.51 89.742C158.06 81.5768 157.798 81.0602 156.8 80.5232C156.061 80.1293 154.179 80.0067 152.819 80.2694L152.81 80.2723ZM99.1903 84.3899C95.8138 85.2333 94.0833 88.4726 94.0891 93.9269C94.0979 100.076 96.8236 103.796 101.043 103.414C103.962 103.149 105.733 101.319 106.582 97.6943C107.105 95.4618 106.918 90.3987 106.241 88.5076C105.666 86.8968 104.502 85.4434 103.29 84.8277C102.257 84.3024 100.358 84.0981 99.1873 84.3899H99.1903Z" fill="#C814A3"/>
</svg>
